<svg id="圖層_1" data-name="圖層 1" xmlns="http://www.w3.org/2000/svg" viewBox="0 0 56.69 42.52"><defs><style>.cls-1{fill:#565757;}</style></defs><path class="cls-1" d="M40.22,27.09V25.92a3.33,3.33,0,0,0-3.33-3.33h-1.1a9,9,0,0,1-8.84-6,1.12,1.12,0,0,0,.62-1v-.74a1.11,1.11,0,0,0-1.11-1.11H22.39v.74h4.07a.37.37,0,0,1,.37.37v.74a.37.37,0,0,1-.37.37H17.58a.38.38,0,0,1-.37-.37v-.74a.38.38,0,0,1,.37-.37h4.07v-.74H17.58a1.11,1.11,0,0,0-1.11,1.11v.74a1.13,1.13,0,0,0,.74,1.05v2.57L16.47,21v5.31a1.1,1.1,0,0,0-.74,1v1.85a1.85,1.85,0,0,0,1.85,1.85h8.13v-1l4.49,1h8.91A1.85,1.85,0,0,0,41,29.24V28.13A1.1,1.1,0,0,0,40.22,27.09Zm-8.11-4.37a10.93,10.93,0,0,0,2.94.59,2.39,2.39,0,0,1-1.72.53,12.11,12.11,0,0,1-1.49-.41Zm-.69-.27-.26.71a9.72,9.72,0,0,1-2.07-1.22l.52-.53a10.61,10.61,0,0,0,1.06.68c.25.13.5.26.75.36ZM29,20.94l-.52.53a10.36,10.36,0,0,1-1.8-2.13l.64-.34A9.28,9.28,0,0,0,29,20.94Zm-2.7-2.23a12.93,12.93,0,0,1-.92-2h.79A12.41,12.41,0,0,0,27,18.37Zm-8.51.93a6.76,6.76,0,0,1,6.76,6.65H17.21V21.18Zm22.39,9.6a1.13,1.13,0,0,1-.74,1.05v-.68h-.74v.74H36.52v-.74h-.73v.74H33.57v-.74h-.74v.74H30.61v-.74h-.74v.65L25,29.15v1.2H22.75V29.24H22v1.11H19.8V29.24h-.74v1.11H17.58a1.11,1.11,0,0,1-1.11-1.11V27.39a.37.37,0,0,1,.37-.36h8.08l5.55,1.47H33.7v-.74H30.56l-5.22-1.39a7.5,7.5,0,0,0-2.43-5.49,8.09,8.09,0,0,0-5-2V16.68h6.69a14.15,14.15,0,0,0,1,2.37l-.73.38.34.66.77-.41a10,10,0,0,0,1.06,1.41A10.9,10.9,0,0,0,28,22l-.57.58.53.51.6-.62a10.3,10.3,0,0,0,2.33,1.38l-.28.73.7.26.26-.72a12.32,12.32,0,0,0,1.61.44,2.33,2.33,0,0,0,.38,0A3,3,0,0,0,36,23.33h.89a2.59,2.59,0,0,1,2.59,2.59V27H38.22l-.74.73h-3v.74h3.35l.74-.74h1.32a.38.38,0,0,1,.37.37Z"/><path class="cls-1" d="M20.54,17.42h.74v.74h-.74Z"/><path class="cls-1" d="M22,17.42h.74v.74H22Z"/></svg>