<svg id="圖層_1" data-name="圖層 1" xmlns="http://www.w3.org/2000/svg" viewBox="0 0 56.69 42.52"><defs><style>.cls-1{fill:#565757;}</style></defs><path class="cls-1" d="M34.65,32.56H22a1.76,1.76,0,0,1-1.76-1.77V21a8.07,8.07,0,1,1,16.13,0v9.83A1.76,1.76,0,0,1,34.65,32.56Zm-6.3-19A7.42,7.42,0,0,0,20.93,21v9.83A1.12,1.12,0,0,0,22,31.91H34.65a1.12,1.12,0,0,0,1.12-1.12V21A7.43,7.43,0,0,0,28.35,13.54Z"/><path class="cls-1" d="M33.84,32.56a.32.32,0,0,1-.32-.33v-8a1.32,1.32,0,0,0-1.32-1.32H24.49a1.33,1.33,0,0,0-1.32,1.32v8a.32.32,0,1,1-.64,0v-8a2,2,0,0,1,2-2H32.2a2,2,0,0,1,2,2v8a.33.33,0,0,1-.33.33Z"/><path class="cls-1" d="M33.84,26h-11a.32.32,0,0,1,0-.64h11a.32.32,0,1,1,0,.64Z"/><path class="cls-1" d="M32.49,28H30.24a.32.32,0,0,1-.32-.32.17.17,0,0,1,0-.07l.47-2a.33.33,0,0,1,.32-.25H32a.31.31,0,0,1,.31.25l.48,2a.33.33,0,0,1-.24.39Zm-1.84-.64h1.43L31.76,26H31Z"/><path class="cls-1" d="M32.33,14.65a.33.33,0,0,1-.32-.33V11.43a.82.82,0,0,0-.82-.82H25.5a.82.82,0,0,0-.82.82v2.89a.32.32,0,1,1-.64,0V11.43A1.46,1.46,0,0,1,25.5,10h5.69a1.47,1.47,0,0,1,1.47,1.47v2.89A.33.33,0,0,1,32.33,14.65Z"/><path class="cls-1" d="M31,14a.32.32,0,0,1-.32-.32v-1.6a.05.05,0,0,0-.05-.05H26.08a0,0,0,0,0,0,.05v1.6a.33.33,0,0,1-.65,0v-1.6a.7.7,0,0,1,.7-.7h4.54a.69.69,0,0,1,.69.7v1.6A.32.32,0,0,1,31,14Z"/><path class="cls-1" d="M37.15,29.82H36.09a.32.32,0,0,1-.32-.32V25a.32.32,0,0,1,.32-.33h2a.32.32,0,0,1,.32.33v3.5A1.3,1.3,0,0,1,37.15,29.82Zm-.74-.65h.74a.66.66,0,0,0,.66-.65V25.34h-1.4Z"/><path class="cls-1" d="M20.6,29.82H19.54a1.3,1.3,0,0,1-1.3-1.3V25a.33.33,0,0,1,.33-.33h2a.33.33,0,0,1,.33.33V29.5A.33.33,0,0,1,20.6,29.82Zm-1.71-4.48v3.18a.65.65,0,0,0,.65.65h.74V25.34Z"/><path class="cls-1" d="M29.91,18.68H26.58a1.2,1.2,0,1,1,0-2.4h3.33a1.2,1.2,0,0,1,0,2.4Zm-3.33-1.75a.56.56,0,0,0,0,1.11h3.33a.56.56,0,1,0,0-1.11Z"/></svg>