<svg id="圖層_1" data-name="圖層 1" xmlns="http://www.w3.org/2000/svg" viewBox="0 0 56.69 42.52"><defs><style>.cls-1{fill:#565757;}</style></defs><path class="cls-1" d="M40.19,16.22v0l-5-4.39a.36.36,0,0,0-.15-.1L31.5,10.43a.47.47,0,0,0-.6.28.35.35,0,0,0,0,.14,2.55,2.55,0,0,1-5.09,0,.46.46,0,0,0-.49-.44l-.13,0-3.58,1.3a.46.46,0,0,0-.15.09L16.52,16.2a.46.46,0,0,0,0,.66l0,0,3.91,3.95V31.64a.47.47,0,0,0,.47.47H35.8a.47.47,0,0,0,.47-.47V20.83l3.91-3.95A.47.47,0,0,0,40.19,16.22ZM36.25,19.5V17.31a.47.47,0,0,0-.94,0V31.15h-14V17.31a.47.47,0,0,0-.94,0V19.5l-2.89-2.93,4.47-4,2.94-1.07a3.47,3.47,0,0,0,6.81,0l2.94,1.07,4.46,4Z"/></svg>