<svg id="圖層_1" data-name="圖層 1" xmlns="http://www.w3.org/2000/svg" viewBox="0 0 56.69 42.52"><defs><style>.cls-1{fill:#565757;}</style></defs><path class="cls-1" d="M28.35,32.28a11,11,0,1,1,11-11A11,11,0,0,1,28.35,32.28Zm0-21.25A10.23,10.23,0,1,0,38.58,21.26,10.24,10.24,0,0,0,28.35,11Z"/><path class="cls-1" d="M23.12,16.38l1.54,2.33V16.36a.5.5,0,0,1,.1-.35A.33.33,0,0,1,25,15.9a.34.34,0,0,1,.27.11.5.5,0,0,1,.1.35v3.11c0,.35-.14.52-.43.52a.58.58,0,0,1-.19,0,.54.54,0,0,1-.16-.1,1.07,1.07,0,0,1-.14-.16l-.13-.18-1.51-2.31v2.32a.48.48,0,0,1-.1.34.34.34,0,0,1-.27.12.33.33,0,0,1-.27-.12.5.5,0,0,1-.11-.34V16.48a.87.87,0,0,1,.05-.31.49.49,0,0,1,.42-.27.54.54,0,0,1,.19,0l.13.1a1,1,0,0,1,.12.15Z"/><path class="cls-1" d="M28.88,16.58H27.07v1h1.66a.38.38,0,0,1,.28.08.26.26,0,0,1,.09.21.28.28,0,0,1-.09.22.38.38,0,0,1-.28.09H27.07v1.12h1.87a.38.38,0,0,1,.28.09.3.3,0,0,1,.1.24.26.26,0,0,1-.1.22.38.38,0,0,1-.28.09H26.76a.42.42,0,0,1-.49-.49v-3a.79.79,0,0,1,.05-.29.33.33,0,0,1,.16-.15.61.61,0,0,1,.28,0h2.12a.38.38,0,0,1,.28.08.3.3,0,0,1,.1.22.31.31,0,0,1-.1.23A.38.38,0,0,1,28.88,16.58Z"/><path class="cls-1" d="M32.76,19.3l-.64-2.37-.65,2.37q-.07.27-.12.39a.69.69,0,0,1-.15.21.49.49,0,0,1-.3.09.43.43,0,0,1-.24-.06.39.39,0,0,1-.16-.15.85.85,0,0,1-.09-.24c0-.1-.05-.18-.07-.26l-.66-2.66a1.64,1.64,0,0,1-.06-.36A.36.36,0,0,1,30,15.9a.29.29,0,0,1,.29.14,1.65,1.65,0,0,1,.13.41l.52,2.31.58-2.17a2,2,0,0,1,.12-.37A.6.6,0,0,1,31.8,16a.53.53,0,0,1,.32-.09.43.43,0,0,1,.31.1.46.46,0,0,1,.16.21,3.29,3.29,0,0,1,.11.38l.59,2.17.52-2.31a2.49,2.49,0,0,1,.07-.29A.36.36,0,0,1,34,16a.32.32,0,0,1,.23-.08.36.36,0,0,1,.38.36,1.74,1.74,0,0,1-.06.36l-.66,2.66a3,3,0,0,1-.11.39.48.48,0,0,1-.15.22.4.4,0,0,1-.3.1.49.49,0,0,1-.3-.09.51.51,0,0,1-.15-.21Q32.84,19.57,32.76,19.3Z"/><path class="cls-1" d="M25.6,26.55H24.39a.41.41,0,0,1-.48-.49v-3a.51.51,0,0,1,.11-.38.54.54,0,0,1,.37-.11h1.28a3.38,3.38,0,0,1,.49,0,1.15,1.15,0,0,1,.38.14,1,1,0,0,1,.47.82.9.9,0,0,1-.6.87,1,1,0,0,1,.78,1,1.08,1.08,0,0,1-.63,1,1.64,1.64,0,0,1-.41.1A4.44,4.44,0,0,1,25.6,26.55Zm-.89-3.35v1h.73a1.72,1.72,0,0,0,.46,0,.42.42,0,0,0,.25-.22.45.45,0,0,0,.07-.25.39.39,0,0,0-.21-.4,1.55,1.55,0,0,0-.65-.1Zm.83,1.6h-.83V26h.86c.54,0,.81-.19.81-.58a.49.49,0,0,0-.21-.44A1.18,1.18,0,0,0,25.54,24.8Z"/><path class="cls-1" d="M27.92,26.13V23a.54.54,0,0,1,.11-.37.37.37,0,0,1,.29-.12.38.38,0,0,1,.29.12.54.54,0,0,1,.11.37v3.11a.54.54,0,0,1-.11.37.41.41,0,0,1-.58,0A.56.56,0,0,1,27.92,26.13Z"/><path class="cls-1" d="M32.22,23.22h-1.8v1h1.66a.36.36,0,0,1,.27.08.28.28,0,0,1,.09.22.33.33,0,0,1-.08.22.44.44,0,0,1-.28.08H30.42v1.13h1.87a.44.44,0,0,1,.28.08.33.33,0,0,1,.1.24.33.33,0,0,1-.1.23.44.44,0,0,1-.28.08H30.11a.56.56,0,0,1-.38-.11.51.51,0,0,1-.11-.38v-3a.56.56,0,0,1,.05-.28.28.28,0,0,1,.16-.16.56.56,0,0,1,.28,0h2.11a.46.46,0,0,1,.29.08.3.3,0,0,1,.09.23.29.29,0,0,1-.09.22A.4.4,0,0,1,32.22,23.22Z"/></svg>